<svg viewBox="0 0 64 64" xmlns="http://www.w3.org/2000/svg">
  <circle cx="32" cy="32" r="31" fill="#F9F6F2" stroke="#2A67AF" stroke-width="3.2"/>
  <g transform="translate(10 3) scale(1.15)">
    <g fill="#D44533" stroke="#B23A2A" stroke-width="1.3" stroke-linejoin="round">
      <rect x="6.5" y="27" width="6.5" height="13" rx="3.2"/>
      <rect x="12.5" y="27" width="6.5" height="13" rx="3.2"/>
    </g>
    <path d="M21 32 37 25 40.5 27 40.5 36 36 38.5 23 38.5Z"
          fill="#D44533" stroke="#B23A2A" stroke-width="1.3" stroke-linejoin="round"/>
    <g transform="rotate(-28 22 21)">
      <rect x="7" y="15.5" width="30" height="11.5" rx="5.7" fill="#D44533" stroke="#B23A2A" stroke-width="1.4"/>
    </g>
    <g transform="translate(14 26.5)">
      <circle r="6.4" fill="#D44533" stroke="#B23A2A" stroke-width="1.4"/>
      <path d="M0 0m-3.3 0a3.3 3.3 0 1 1 3.3 3.3 1.95 1.95 0 1 1 -1.95 -1.95 0.85 0.85 0 1 1 0.85 0.85"
            fill="none" stroke="#7A1F16" stroke-width="0.9" stroke-linecap="round"/>
    </g>
  </g>
</svg>
